<?xml version="1.0" encoding="UTF-8" standalone="no"?>
<!-- Created with Inkscape (http://www.inkscape.org/) -->

<svg
   width="100"
   height="100"
   viewBox="0 0 100 100"
   version="1.1"
   id="svg2635"
   inkscape:version="1.1.1 (3bf5ae0d25, 2021-09-20, custom)"
   sodipodi:docname="outlook.svg"
   inkscape:export-filename="/mnt/data/Desktop/KDE/mozicons/yt.png"
   inkscape:export-xdpi="96"
   inkscape:export-ydpi="96"
   xmlns:inkscape="http://www.inkscape.org/namespaces/inkscape"
   xmlns:sodipodi="http://sodipodi.sourceforge.net/DTD/sodipodi-0.dtd"
   xmlns="http://www.w3.org/2000/svg"
   xmlns:svg="http://www.w3.org/2000/svg"
   xmlns:rdf="http://www.w3.org/1999/02/22-rdf-syntax-ns#"
   xmlns:cc="http://creativecommons.org/ns#"
   xmlns:dc="http://purl.org/dc/elements/1.1/">
  <defs
     id="defs2629">
    <clipPath
       clipPathUnits="userSpaceOnUse"
       id="clipPath5561">
      <rect
         style="display:inline;fill:#a300ff;fill-opacity:0.388769;stroke:none;stroke-width:1.68234;stroke-opacity:1;-inkscape-stroke:none;stop-color:#000000"
         id="rect5563"
         width="107.56951"
         height="193.54042"
         x="1745.917"
         y="789.57971" />
    </clipPath>
    <clipPath
       clipPathUnits="userSpaceOnUse"
       id="clipPath2796">
      <path
         id="path2798"
         style="display:none;fill:#c61414;fill-opacity:1;stroke-width:1.20969"
         d="m -3.8010953,285.02674 c -52.1474187,0 -94.4221587,42.27475 -94.4221587,94.42217 v 944.43419 c 0,52.1474 42.273532,94.4221 94.4221587,94.4221 H 940.63313 c 52.14864,0 94.42217,-42.2735 94.42217,-94.4221 V 379.44891 c 0,-52.14742 -42.27353,-94.42217 -94.42217,-94.42217 z" />
      <path
         id="lpe_path-effect2836"
         style="display:inline;fill:#c61414;fill-opacity:1;stroke-width:1.20969"
         class="powerclip"
         d="M 505.97883,-5 H 1750.9382 V 1030.151 H 505.97883 Z M -3.8010953,285.02674 c -52.1474187,0 -94.4221587,42.27475 -94.4221587,94.42217 v 944.43419 c 0,52.1474 42.273532,94.4221 94.4221587,94.4221 H 940.63313 c 52.14864,0 94.42217,-42.2735 94.42217,-94.4221 V 379.44891 c 0,-52.14742 -42.27353,-94.42217 -94.42217,-94.42217 z" />
    </clipPath>
    <clipPath
       clipPathUnits="userSpaceOnUse"
       id="clipPath2792">
      <path
         id="path2794"
         style="display:none;fill:#c61414;fill-opacity:1;stroke-width:1.20969"
         d="m -3.8010953,285.02674 c -52.1474187,0 -94.4221587,42.27475 -94.4221587,94.42217 v 944.43419 c 0,52.1474 42.273532,94.4221 94.4221587,94.4221 H 940.63313 c 52.14864,0 94.42217,-42.2735 94.42217,-94.4221 V 379.44891 c 0,-52.14742 -42.27353,-94.42217 -94.42217,-94.42217 z" />
      <path
         id="lpe_path-effect2832"
         style="display:inline;fill:#c61414;fill-opacity:1;stroke-width:1.20969"
         class="powerclip"
         d="M 506,250.5 H 941.833 V 643.75 H 506 Z M -3.8010953,285.02674 c -52.1474187,0 -94.4221587,42.27475 -94.4221587,94.42217 v 944.43419 c 0,52.1474 42.273532,94.4221 94.4221587,94.4221 H 940.63313 c 52.14864,0 94.42217,-42.2735 94.42217,-94.4221 V 379.44891 c 0,-52.14742 -42.27353,-94.42217 -94.42217,-94.42217 z" />
    </clipPath>
    <clipPath
       clipPathUnits="userSpaceOnUse"
       id="clipPath2788">
      <path
         id="path2790"
         style="display:none;fill:#c61414;fill-opacity:1;stroke-width:1.20969"
         d="m -3.8010953,285.02674 c -52.1474187,0 -94.4221587,42.27475 -94.4221587,94.42217 v 944.43419 c 0,52.1474 42.273532,94.4221 94.4221587,94.4221 H 940.63313 c 52.14864,0 94.42217,-42.2735 94.42217,-94.4221 V 379.44891 c 0,-52.14742 -42.27353,-94.42217 -94.42217,-94.42217 z" />
      <path
         id="lpe_path-effect2828"
         style="display:inline;fill:#c61414;fill-opacity:1;stroke-width:1.20969"
         class="powerclip"
         d="m 931.833,250.5 h 819.084 V 1027 H 931.833 Z M -3.8010953,285.02674 c -52.1474187,0 -94.4221587,42.27475 -94.4221587,94.42217 v 944.43419 c 0,52.1474 42.273532,94.4221 94.4221587,94.4221 H 940.63313 c 52.14864,0 94.42217,-42.2735 94.42217,-94.4221 V 379.44891 c 0,-52.14742 -42.27353,-94.42217 -94.42217,-94.42217 z" />
    </clipPath>
    <clipPath
       clipPathUnits="userSpaceOnUse"
       id="clipPath2784">
      <path
         id="path2786"
         style="display:none;fill:#c61414;fill-opacity:1;stroke-width:1.20969"
         d="m -3.8010953,285.02674 c -52.1474187,0 -94.4221587,42.27475 -94.4221587,94.42217 v 944.43419 c 0,52.1474 42.273532,94.4221 94.4221587,94.4221 H 940.63313 c 52.14864,0 94.42217,-42.2735 94.42217,-94.4221 V 379.44891 c 0,-52.14742 -42.27353,-94.42217 -94.42217,-94.42217 z" />
      <path
         id="lpe_path-effect2824"
         style="display:inline;fill:#c61414;fill-opacity:1;stroke-width:1.20969"
         class="powerclip"
         d="m 931.833,633.75 h 435.833 V 1027 H 931.833 Z M -3.8010953,285.02674 c -52.1474187,0 -94.4221587,42.27475 -94.4221587,94.42217 v 944.43419 c 0,52.1474 42.273532,94.4221 94.4221587,94.4221 H 940.63313 c 52.14864,0 94.42217,-42.2735 94.42217,-94.4221 V 379.44891 c 0,-52.14742 -42.27353,-94.42217 -94.42217,-94.42217 z" />
    </clipPath>
    <clipPath
       clipPathUnits="userSpaceOnUse"
       id="clipPath1277" />
    <clipPath
       clipPathUnits="userSpaceOnUse"
       id="clipPath2776">
      <path
         id="path2778"
         style="display:none;fill:#c61414;fill-opacity:1;stroke-width:1.20969"
         d="m -3.8010953,285.02674 c -52.1474187,0 -94.4221587,42.27475 -94.4221587,94.42217 v 944.43419 c 0,52.1474 42.273532,94.4221 94.4221587,94.4221 H 940.63313 c 52.14864,0 94.42217,-42.2735 94.42217,-94.4221 V 379.44891 c 0,-52.14742 -42.27353,-94.42217 -94.42217,-94.42217 z" />
      <path
         id="lpe_path-effect2816"
         style="display:inline;fill:#c61414;fill-opacity:1;stroke-width:1.20969"
         class="powerclip"
         d="m 515.453,1020.151 h 426.38 V 1377.12 H 515.453 Z M -3.8010953,285.02674 c -52.1474187,0 -94.4221587,42.27475 -94.4221587,94.42217 v 944.43419 c 0,52.1474 42.273532,94.4221 94.4221587,94.4221 H 940.63313 c 52.14864,0 94.42217,-42.2735 94.42217,-94.4221 V 379.44891 c 0,-52.14742 -42.27353,-94.42217 -94.42217,-94.42217 z" />
    </clipPath>
    <clipPath
       clipPathUnits="userSpaceOnUse"
       id="clipPath1249">
      <path
         fill="#1490DF"
         d="m 1811.58,927.593 -0.809,0.468 -634.492,356.848 c -2.768,1.703 -5.578,3.321 -8.517,4.769 -24.641,12.038 -53.457,12.038 -78.098,0 -2.918,-1.445 -5.76,-3.037 -8.517,-4.769 l -634.49,-356.848 -0.766,-0.468 c -12.25,-6.642 -19.93,-19.409 -20.057,-33.343 v 722.384 c 0.305,48.188 39.616,87.004 87.803,86.7 0.001,0 0.002,0 0.004,0 h 1229.636 c 48.188,0.307 87.5,-38.509 87.807,-86.696 0,-10e-4 0,0 0,0 V 894.25 c -0.016,13.817 -7.468,26.557 -19.504,33.343 z"
         id="path1251"
         clip-path="url(#clipath_lpe_path-effect1237)"
         style="display:none;fill:#ffffff;fill-opacity:0.526998" />
      <path
         id="lpe_path-effect1253"
         style="fill:#ffffff;fill-opacity:0.526998"
         class="powerclip"
         d="m 1357.667,1017 h 393.25 v 393.25 h -393.25 z m 453.913,-89.407 -0.809,0.468 -634.492,356.848 c -2.768,1.703 -5.578,3.321 -8.517,4.769 -24.641,12.038 -53.457,12.038 -78.098,0 -2.918,-1.445 -5.76,-3.037 -8.517,-4.769 l -634.49,-356.848 -0.766,-0.468 c -12.25,-6.642 -19.93,-19.409 -20.057,-33.343 v 722.384 c 0.305,48.188 39.616,87.004 87.803,86.7 0.001,0 0.002,0 0.004,0 h 1229.636 c 48.188,0.307 87.5,-38.509 87.807,-86.696 0,-10e-4 0,0 0,0 V 894.25 c -0.016,13.817 -7.468,26.557 -19.504,33.343 z" />
    </clipPath>
    <clipPath
       clipPathUnits="userSpaceOnUse"
       id="clipPath2768">
      <path
         id="path2770"
         style="display:none;fill:#c61414;fill-opacity:1;stroke-width:1.20969"
         d="m -3.8010953,285.02674 c -52.1474187,0 -94.4221587,42.27475 -94.4221587,94.42217 v 944.43419 c 0,52.1474 42.273532,94.4221 94.4221587,94.4221 H 940.63313 c 52.14864,0 94.42217,-42.2735 94.42217,-94.4221 V 379.44891 c 0,-52.14742 -42.27353,-94.42217 -94.42217,-94.42217 z" />
      <path
         id="lpe_path-effect2808"
         style="display:inline;fill:#c61414;fill-opacity:1;stroke-width:1.20969"
         class="powerclip"
         d="m 420.834,889.25 h 1415.25 v 819.0858 H 420.834 Z M -3.8010953,285.02674 c -52.1474187,0 -94.4221587,42.27475 -94.4221587,94.42217 v 944.43419 c 0,52.1474 42.273532,94.4221 94.4221587,94.4221 H 940.63313 c 52.14864,0 94.42217,-42.2735 94.42217,-94.4221 V 379.44891 c 0,-52.14742 -42.27353,-94.42217 -94.42217,-94.42217 z" />
    </clipPath>
    <clipPath
       clipPathUnits="userSpaceOnUse"
       id="clipPath2764">
      <path
         id="path2766"
         style="display:none;fill:#c61414;fill-opacity:1;stroke-width:1.20969"
         d="m -3.8010953,285.02674 c -52.1474187,0 -94.4221587,42.27475 -94.4221587,94.42217 v 944.43419 c 0,52.1474 42.273532,94.4221 94.4221587,94.4221 H 940.63313 c 52.14864,0 94.42217,-42.2735 94.42217,-94.4221 V 379.44891 c 0,-52.14742 -42.27353,-94.42217 -94.42217,-94.42217 z" />
      <path
         id="lpe_path-effect2804"
         style="display:inline;fill:#c61414;fill-opacity:1;stroke-width:1.20969"
         class="powerclip"
         d="M 420.83396,889.25 H 1800.739 v 819.0841 H 420.83396 Z M -3.8010953,285.02674 c -52.1474187,0 -94.4221587,42.27475 -94.4221587,94.42217 v 944.43419 c 0,52.1474 42.273532,94.4221 94.4221587,94.4221 H 940.63313 c 52.14864,0 94.42217,-42.2735 94.42217,-94.4221 V 379.44891 c 0,-52.14742 -42.27353,-94.42217 -94.42217,-94.42217 z" />
    </clipPath>
    <clipPath
       clipPathUnits="userSpaceOnUse"
       id="clipPath1879">
      <rect
         style="display:none;fill:#b80308;fill-opacity:0.161987;stroke:none;stroke-opacity:1;-inkscape-stroke:none;stop-color:#000000"
         id="rect1881"
         width="646.83606"
         height="687.56281"
         x="148.53268"
         y="505.49039" />
      <path
         id="lpe_path-effect1923"
         style="display:inline;fill:#b80308;fill-opacity:0.161987;stroke:none;stroke-opacity:1;-inkscape-stroke:none;stop-color:#000000"
         class="powerclip"
         d="m 1357.667,250.5 h 393.25 v 393.25 h -393.25 z M 148.53268,505.49039 V 1193.0532 H 795.36874 V 505.49039 Z" />
    </clipPath>
    <clipPath
       clipPathUnits="userSpaceOnUse"
       id="clipPath2796-3">
      <path
         id="path2798-6"
         style="display:none;fill:#c61414;fill-opacity:1;stroke-width:1.20969"
         d="m -3.8010953,285.02674 c -52.1474187,0 -94.4221587,42.27475 -94.4221587,94.42217 v 944.43419 c 0,52.1474 42.273532,94.4221 94.4221587,94.4221 H 940.63313 c 52.14864,0 94.42217,-42.2735 94.42217,-94.4221 V 379.44891 c 0,-52.14742 -42.27353,-94.42217 -94.42217,-94.42217 z" />
      <path
         id="lpe_path-effect2836-7"
         style="display:inline;fill:#c61414;fill-opacity:1;stroke-width:1.20969"
         class="powerclip"
         d="M 505.97883,-5 H 1750.9382 V 1030.151 H 505.97883 Z M -3.8010953,285.02674 c -52.1474187,0 -94.4221587,42.27475 -94.4221587,94.42217 v 944.43419 c 0,52.1474 42.273532,94.4221 94.4221587,94.4221 H 940.63313 c 52.14864,0 94.42217,-42.2735 94.42217,-94.4221 V 379.44891 c 0,-52.14742 -42.27353,-94.42217 -94.42217,-94.42217 z" />
    </clipPath>
    <clipPath
       clipPathUnits="userSpaceOnUse"
       id="clipPath2792-5">
      <path
         id="path2794-3"
         style="display:none;fill:#c61414;fill-opacity:1;stroke-width:1.20969"
         d="m -3.8010953,285.02674 c -52.1474187,0 -94.4221587,42.27475 -94.4221587,94.42217 v 944.43419 c 0,52.1474 42.273532,94.4221 94.4221587,94.4221 H 940.63313 c 52.14864,0 94.42217,-42.2735 94.42217,-94.4221 V 379.44891 c 0,-52.14742 -42.27353,-94.42217 -94.42217,-94.42217 z" />
      <path
         id="lpe_path-effect2832-5"
         style="display:inline;fill:#c61414;fill-opacity:1;stroke-width:1.20969"
         class="powerclip"
         d="M 506,250.5 H 941.833 V 643.75 H 506 Z M -3.8010953,285.02674 c -52.1474187,0 -94.4221587,42.27475 -94.4221587,94.42217 v 944.43419 c 0,52.1474 42.273532,94.4221 94.4221587,94.4221 H 940.63313 c 52.14864,0 94.42217,-42.2735 94.42217,-94.4221 V 379.44891 c 0,-52.14742 -42.27353,-94.42217 -94.42217,-94.42217 z" />
    </clipPath>
    <clipPath
       clipPathUnits="userSpaceOnUse"
       id="clipPath2788-6">
      <path
         id="path2790-2"
         style="display:none;fill:#c61414;fill-opacity:1;stroke-width:1.20969"
         d="m -3.8010953,285.02674 c -52.1474187,0 -94.4221587,42.27475 -94.4221587,94.42217 v 944.43419 c 0,52.1474 42.273532,94.4221 94.4221587,94.4221 H 940.63313 c 52.14864,0 94.42217,-42.2735 94.42217,-94.4221 V 379.44891 c 0,-52.14742 -42.27353,-94.42217 -94.42217,-94.42217 z" />
      <path
         id="lpe_path-effect2828-9"
         style="display:inline;fill:#c61414;fill-opacity:1;stroke-width:1.20969"
         class="powerclip"
         d="m 931.833,250.5 h 819.084 V 1027 H 931.833 Z M -3.8010953,285.02674 c -52.1474187,0 -94.4221587,42.27475 -94.4221587,94.42217 v 944.43419 c 0,52.1474 42.273532,94.4221 94.4221587,94.4221 H 940.63313 c 52.14864,0 94.42217,-42.2735 94.42217,-94.4221 V 379.44891 c 0,-52.14742 -42.27353,-94.42217 -94.42217,-94.42217 z" />
    </clipPath>
    <clipPath
       clipPathUnits="userSpaceOnUse"
       id="clipPath2784-1">
      <path
         id="path2786-2"
         style="display:none;fill:#c61414;fill-opacity:1;stroke-width:1.20969"
         d="m -3.8010953,285.02674 c -52.1474187,0 -94.4221587,42.27475 -94.4221587,94.42217 v 944.43419 c 0,52.1474 42.273532,94.4221 94.4221587,94.4221 H 940.63313 c 52.14864,0 94.42217,-42.2735 94.42217,-94.4221 V 379.44891 c 0,-52.14742 -42.27353,-94.42217 -94.42217,-94.42217 z" />
      <path
         id="lpe_path-effect2824-7"
         style="display:inline;fill:#c61414;fill-opacity:1;stroke-width:1.20969"
         class="powerclip"
         d="m 931.833,633.75 h 435.833 V 1027 H 931.833 Z M -3.8010953,285.02674 c -52.1474187,0 -94.4221587,42.27475 -94.4221587,94.42217 v 944.43419 c 0,52.1474 42.273532,94.4221 94.4221587,94.4221 H 940.63313 c 52.14864,0 94.42217,-42.2735 94.42217,-94.4221 V 379.44891 c 0,-52.14742 -42.27353,-94.42217 -94.42217,-94.42217 z" />
    </clipPath>
    <clipPath
       clipPathUnits="userSpaceOnUse"
       id="clipPath1277-0" />
    <clipPath
       clipPathUnits="userSpaceOnUse"
       id="clipPath2776-9">
      <path
         id="path2778-3"
         style="display:none;fill:#c61414;fill-opacity:1;stroke-width:1.20969"
         d="m -3.8010953,285.02674 c -52.1474187,0 -94.4221587,42.27475 -94.4221587,94.42217 v 944.43419 c 0,52.1474 42.273532,94.4221 94.4221587,94.4221 H 940.63313 c 52.14864,0 94.42217,-42.2735 94.42217,-94.4221 V 379.44891 c 0,-52.14742 -42.27353,-94.42217 -94.42217,-94.42217 z" />
      <path
         id="lpe_path-effect2816-6"
         style="display:inline;fill:#c61414;fill-opacity:1;stroke-width:1.20969"
         class="powerclip"
         d="m 515.453,1020.151 h 426.38 V 1377.12 H 515.453 Z M -3.8010953,285.02674 c -52.1474187,0 -94.4221587,42.27475 -94.4221587,94.42217 v 944.43419 c 0,52.1474 42.273532,94.4221 94.4221587,94.4221 H 940.63313 c 52.14864,0 94.42217,-42.2735 94.42217,-94.4221 V 379.44891 c 0,-52.14742 -42.27353,-94.42217 -94.42217,-94.42217 z" />
    </clipPath>
    <clipPath
       clipPathUnits="userSpaceOnUse"
       id="clipPath1249-0">
      <path
         fill="#1490DF"
         d="m 1811.58,927.593 -0.809,0.468 -634.492,356.848 c -2.768,1.703 -5.578,3.321 -8.517,4.769 -24.641,12.038 -53.457,12.038 -78.098,0 -2.918,-1.445 -5.76,-3.037 -8.517,-4.769 l -634.49,-356.848 -0.766,-0.468 c -12.25,-6.642 -19.93,-19.409 -20.057,-33.343 v 722.384 c 0.305,48.188 39.616,87.004 87.803,86.7 0.001,0 0.002,0 0.004,0 h 1229.636 c 48.188,0.307 87.5,-38.509 87.807,-86.696 0,-10e-4 0,0 0,0 V 894.25 c -0.016,13.817 -7.468,26.557 -19.504,33.343 z"
         id="path1251-6"
         clip-path="url(#clipath_lpe_path-effect1237)"
         style="display:none;fill:#ffffff;fill-opacity:0.526998" />
      <path
         id="lpe_path-effect1253-2"
         style="fill:#ffffff;fill-opacity:0.526998"
         class="powerclip"
         d="m 1357.667,1017 h 393.25 v 393.25 h -393.25 z m 453.913,-89.407 -0.809,0.468 -634.492,356.848 c -2.768,1.703 -5.578,3.321 -8.517,4.769 -24.641,12.038 -53.457,12.038 -78.098,0 -2.918,-1.445 -5.76,-3.037 -8.517,-4.769 l -634.49,-356.848 -0.766,-0.468 c -12.25,-6.642 -19.93,-19.409 -20.057,-33.343 v 722.384 c 0.305,48.188 39.616,87.004 87.803,86.7 0.001,0 0.002,0 0.004,0 h 1229.636 c 48.188,0.307 87.5,-38.509 87.807,-86.696 0,-10e-4 0,0 0,0 V 894.25 c -0.016,13.817 -7.468,26.557 -19.504,33.343 z" />
    </clipPath>
    <clipPath
       clipPathUnits="userSpaceOnUse"
       id="clipPath2768-6">
      <path
         id="path2770-1"
         style="display:none;fill:#c61414;fill-opacity:1;stroke-width:1.20969"
         d="m -3.8010953,285.02674 c -52.1474187,0 -94.4221587,42.27475 -94.4221587,94.42217 v 944.43419 c 0,52.1474 42.273532,94.4221 94.4221587,94.4221 H 940.63313 c 52.14864,0 94.42217,-42.2735 94.42217,-94.4221 V 379.44891 c 0,-52.14742 -42.27353,-94.42217 -94.42217,-94.42217 z" />
      <path
         id="lpe_path-effect2808-8"
         style="display:inline;fill:#c61414;fill-opacity:1;stroke-width:1.20969"
         class="powerclip"
         d="m 420.834,889.25 h 1415.25 v 819.0858 H 420.834 Z M -3.8010953,285.02674 c -52.1474187,0 -94.4221587,42.27475 -94.4221587,94.42217 v 944.43419 c 0,52.1474 42.273532,94.4221 94.4221587,94.4221 H 940.63313 c 52.14864,0 94.42217,-42.2735 94.42217,-94.4221 V 379.44891 c 0,-52.14742 -42.27353,-94.42217 -94.42217,-94.42217 z" />
    </clipPath>
    <clipPath
       clipPathUnits="userSpaceOnUse"
       id="clipPath2764-7">
      <path
         id="path2766-9"
         style="display:none;fill:#c61414;fill-opacity:1;stroke-width:1.20969"
         d="m -3.8010953,285.02674 c -52.1474187,0 -94.4221587,42.27475 -94.4221587,94.42217 v 944.43419 c 0,52.1474 42.273532,94.4221 94.4221587,94.4221 H 940.63313 c 52.14864,0 94.42217,-42.2735 94.42217,-94.4221 V 379.44891 c 0,-52.14742 -42.27353,-94.42217 -94.42217,-94.42217 z" />
      <path
         id="lpe_path-effect2804-2"
         style="display:inline;fill:#c61414;fill-opacity:1;stroke-width:1.20969"
         class="powerclip"
         d="M 420.83396,889.25 H 1800.739 v 819.0841 H 420.83396 Z M -3.8010953,285.02674 c -52.1474187,0 -94.4221587,42.27475 -94.4221587,94.42217 v 944.43419 c 0,52.1474 42.273532,94.4221 94.4221587,94.4221 H 940.63313 c 52.14864,0 94.42217,-42.2735 94.42217,-94.4221 V 379.44891 c 0,-52.14742 -42.27353,-94.42217 -94.42217,-94.42217 z" />
    </clipPath>
    <clipPath
       clipPathUnits="userSpaceOnUse"
       id="clipPath1879-0">
      <rect
         style="display:none;fill:#b80308;fill-opacity:0.161987;stroke:none;stroke-opacity:1;-inkscape-stroke:none;stop-color:#000000"
         id="rect1881-2"
         width="646.83606"
         height="687.56281"
         x="148.53268"
         y="505.49039" />
      <path
         id="lpe_path-effect1923-3"
         style="display:inline;fill:#b80308;fill-opacity:0.161987;stroke:none;stroke-opacity:1;-inkscape-stroke:none;stop-color:#000000"
         class="powerclip"
         d="m 1357.667,250.5 h 393.25 v 393.25 h -393.25 z M 148.53268,505.49039 V 1193.0532 H 795.36874 V 505.49039 Z" />
    </clipPath>
    <clipPath
       clipPathUnits="userSpaceOnUse"
       id="clipPath21199">
      <path
         id="path21195"
         style="display:none;fill:#c61414;fill-opacity:1;stroke-width:1.20969"
         d="m -3.8010953,285.02674 c -52.1474187,0 -94.4221587,42.27475 -94.4221587,94.42217 v 944.43419 c 0,52.1474 42.273532,94.4221 94.4221587,94.4221 H 940.63313 c 52.14864,0 94.42217,-42.2735 94.42217,-94.4221 V 379.44891 c 0,-52.14742 -42.27353,-94.42217 -94.42217,-94.42217 z" />
      <path
         id="path21197"
         style="display:inline;fill:#c61414;fill-opacity:1;stroke-width:1.20969"
         class="powerclip"
         d="m 420.834,889.25 h 1415.25 v 819.0858 H 420.834 Z M -3.8010953,285.02674 c -52.1474187,0 -94.4221587,42.27475 -94.4221587,94.42217 v 944.43419 c 0,52.1474 42.273532,94.4221 94.4221587,94.4221 H 940.63313 c 52.14864,0 94.42217,-42.2735 94.42217,-94.4221 V 379.44891 c 0,-52.14742 -42.27353,-94.42217 -94.42217,-94.42217 z" />
    </clipPath>
    <clipPath
       clipPathUnits="userSpaceOnUse"
       id="clipPath2796-31">
      <path
         id="path2798-9"
         style="display:none;fill:#c61414;fill-opacity:1;stroke-width:1.20969"
         d="m -3.8010953,285.02674 c -52.1474187,0 -94.4221587,42.27475 -94.4221587,94.42217 v 944.43419 c 0,52.1474 42.273532,94.4221 94.4221587,94.4221 H 940.63313 c 52.14864,0 94.42217,-42.2735 94.42217,-94.4221 V 379.44891 c 0,-52.14742 -42.27353,-94.42217 -94.42217,-94.42217 z" />
      <path
         id="lpe_path-effect2836-4"
         style="display:inline;fill:#c61414;fill-opacity:1;stroke-width:1.20969"
         class="powerclip"
         d="M 505.97883,-5 H 1750.9382 V 1030.151 H 505.97883 Z M -3.8010953,285.02674 c -52.1474187,0 -94.4221587,42.27475 -94.4221587,94.42217 v 944.43419 c 0,52.1474 42.273532,94.4221 94.4221587,94.4221 H 940.63313 c 52.14864,0 94.42217,-42.2735 94.42217,-94.4221 V 379.44891 c 0,-52.14742 -42.27353,-94.42217 -94.42217,-94.42217 z" />
    </clipPath>
    <clipPath
       clipPathUnits="userSpaceOnUse"
       id="clipPath2792-7">
      <path
         id="path2794-8"
         style="display:none;fill:#c61414;fill-opacity:1;stroke-width:1.20969"
         d="m -3.8010953,285.02674 c -52.1474187,0 -94.4221587,42.27475 -94.4221587,94.42217 v 944.43419 c 0,52.1474 42.273532,94.4221 94.4221587,94.4221 H 940.63313 c 52.14864,0 94.42217,-42.2735 94.42217,-94.4221 V 379.44891 c 0,-52.14742 -42.27353,-94.42217 -94.42217,-94.42217 z" />
      <path
         id="lpe_path-effect2832-4"
         style="display:inline;fill:#c61414;fill-opacity:1;stroke-width:1.20969"
         class="powerclip"
         d="M 506,250.5 H 941.833 V 643.75 H 506 Z M -3.8010953,285.02674 c -52.1474187,0 -94.4221587,42.27475 -94.4221587,94.42217 v 944.43419 c 0,52.1474 42.273532,94.4221 94.4221587,94.4221 H 940.63313 c 52.14864,0 94.42217,-42.2735 94.42217,-94.4221 V 379.44891 c 0,-52.14742 -42.27353,-94.42217 -94.42217,-94.42217 z" />
    </clipPath>
    <clipPath
       clipPathUnits="userSpaceOnUse"
       id="clipPath2788-5">
      <path
         id="path2790-0"
         style="display:none;fill:#c61414;fill-opacity:1;stroke-width:1.20969"
         d="m -3.8010953,285.02674 c -52.1474187,0 -94.4221587,42.27475 -94.4221587,94.42217 v 944.43419 c 0,52.1474 42.273532,94.4221 94.4221587,94.4221 H 940.63313 c 52.14864,0 94.42217,-42.2735 94.42217,-94.4221 V 379.44891 c 0,-52.14742 -42.27353,-94.42217 -94.42217,-94.42217 z" />
      <path
         id="lpe_path-effect2828-3"
         style="display:inline;fill:#c61414;fill-opacity:1;stroke-width:1.20969"
         class="powerclip"
         d="m 931.833,250.5 h 819.084 V 1027 H 931.833 Z M -3.8010953,285.02674 c -52.1474187,0 -94.4221587,42.27475 -94.4221587,94.42217 v 944.43419 c 0,52.1474 42.273532,94.4221 94.4221587,94.4221 H 940.63313 c 52.14864,0 94.42217,-42.2735 94.42217,-94.4221 V 379.44891 c 0,-52.14742 -42.27353,-94.42217 -94.42217,-94.42217 z" />
    </clipPath>
    <clipPath
       clipPathUnits="userSpaceOnUse"
       id="clipPath2784-6">
      <path
         id="path2786-1"
         style="display:none;fill:#c61414;fill-opacity:1;stroke-width:1.20969"
         d="m -3.8010953,285.02674 c -52.1474187,0 -94.4221587,42.27475 -94.4221587,94.42217 v 944.43419 c 0,52.1474 42.273532,94.4221 94.4221587,94.4221 H 940.63313 c 52.14864,0 94.42217,-42.2735 94.42217,-94.4221 V 379.44891 c 0,-52.14742 -42.27353,-94.42217 -94.42217,-94.42217 z" />
      <path
         id="lpe_path-effect2824-0"
         style="display:inline;fill:#c61414;fill-opacity:1;stroke-width:1.20969"
         class="powerclip"
         d="m 931.833,633.75 h 435.833 V 1027 H 931.833 Z M -3.8010953,285.02674 c -52.1474187,0 -94.4221587,42.27475 -94.4221587,94.42217 v 944.43419 c 0,52.1474 42.273532,94.4221 94.4221587,94.4221 H 940.63313 c 52.14864,0 94.42217,-42.2735 94.42217,-94.4221 V 379.44891 c 0,-52.14742 -42.27353,-94.42217 -94.42217,-94.42217 z" />
    </clipPath>
    <clipPath
       clipPathUnits="userSpaceOnUse"
       id="clipPath1277-6" />
    <clipPath
       clipPathUnits="userSpaceOnUse"
       id="clipPath2776-3">
      <path
         id="path2778-2"
         style="display:none;fill:#c61414;fill-opacity:1;stroke-width:1.20969"
         d="m -3.8010953,285.02674 c -52.1474187,0 -94.4221587,42.27475 -94.4221587,94.42217 v 944.43419 c 0,52.1474 42.273532,94.4221 94.4221587,94.4221 H 940.63313 c 52.14864,0 94.42217,-42.2735 94.42217,-94.4221 V 379.44891 c 0,-52.14742 -42.27353,-94.42217 -94.42217,-94.42217 z" />
      <path
         id="lpe_path-effect2816-0"
         style="display:inline;fill:#c61414;fill-opacity:1;stroke-width:1.20969"
         class="powerclip"
         d="m 515.453,1020.151 h 426.38 V 1377.12 H 515.453 Z M -3.8010953,285.02674 c -52.1474187,0 -94.4221587,42.27475 -94.4221587,94.42217 v 944.43419 c 0,52.1474 42.273532,94.4221 94.4221587,94.4221 H 940.63313 c 52.14864,0 94.42217,-42.2735 94.42217,-94.4221 V 379.44891 c 0,-52.14742 -42.27353,-94.42217 -94.42217,-94.42217 z" />
    </clipPath>
    <clipPath
       clipPathUnits="userSpaceOnUse"
       id="clipPath1249-6">
      <path
         fill="#1490DF"
         d="m 1811.58,927.593 -0.809,0.468 -634.492,356.848 c -2.768,1.703 -5.578,3.321 -8.517,4.769 -24.641,12.038 -53.457,12.038 -78.098,0 -2.918,-1.445 -5.76,-3.037 -8.517,-4.769 l -634.49,-356.848 -0.766,-0.468 c -12.25,-6.642 -19.93,-19.409 -20.057,-33.343 v 722.384 c 0.305,48.188 39.616,87.004 87.803,86.7 0.001,0 0.002,0 0.004,0 h 1229.636 c 48.188,0.307 87.5,-38.509 87.807,-86.696 0,-10e-4 0,0 0,0 V 894.25 c -0.016,13.817 -7.468,26.557 -19.504,33.343 z"
         id="path1251-1"
         clip-path="url(#clipath_lpe_path-effect1237)"
         style="display:none;fill:#ffffff;fill-opacity:0.526998" />
      <path
         id="lpe_path-effect1253-5"
         style="fill:#ffffff;fill-opacity:0.526998"
         class="powerclip"
         d="m 1357.667,1017 h 393.25 v 393.25 h -393.25 z m 453.913,-89.407 -0.809,0.468 -634.492,356.848 c -2.768,1.703 -5.578,3.321 -8.517,4.769 -24.641,12.038 -53.457,12.038 -78.098,0 -2.918,-1.445 -5.76,-3.037 -8.517,-4.769 l -634.49,-356.848 -0.766,-0.468 c -12.25,-6.642 -19.93,-19.409 -20.057,-33.343 v 722.384 c 0.305,48.188 39.616,87.004 87.803,86.7 0.001,0 0.002,0 0.004,0 h 1229.636 c 48.188,0.307 87.5,-38.509 87.807,-86.696 0,-10e-4 0,0 0,0 V 894.25 c -0.016,13.817 -7.468,26.557 -19.504,33.343 z" />
    </clipPath>
    <clipPath
       clipPathUnits="userSpaceOnUse"
       id="clipPath2768-5">
      <path
         id="path2770-4"
         style="display:none;fill:#c61414;fill-opacity:1;stroke-width:1.20969"
         d="m -3.8010953,285.02674 c -52.1474187,0 -94.4221587,42.27475 -94.4221587,94.42217 v 944.43419 c 0,52.1474 42.273532,94.4221 94.4221587,94.4221 H 940.63313 c 52.14864,0 94.42217,-42.2735 94.42217,-94.4221 V 379.44891 c 0,-52.14742 -42.27353,-94.42217 -94.42217,-94.42217 z" />
      <path
         id="lpe_path-effect2808-7"
         style="display:inline;fill:#c61414;fill-opacity:1;stroke-width:1.20969"
         class="powerclip"
         d="m 420.834,889.25 h 1415.25 v 819.0858 H 420.834 Z M -3.8010953,285.02674 c -52.1474187,0 -94.4221587,42.27475 -94.4221587,94.42217 v 944.43419 c 0,52.1474 42.273532,94.4221 94.4221587,94.4221 H 940.63313 c 52.14864,0 94.42217,-42.2735 94.42217,-94.4221 V 379.44891 c 0,-52.14742 -42.27353,-94.42217 -94.42217,-94.42217 z" />
    </clipPath>
    <clipPath
       clipPathUnits="userSpaceOnUse"
       id="clipPath2764-6">
      <path
         id="path2766-5"
         style="display:none;fill:#c61414;fill-opacity:1;stroke-width:1.20969"
         d="m -3.8010953,285.02674 c -52.1474187,0 -94.4221587,42.27475 -94.4221587,94.42217 v 944.43419 c 0,52.1474 42.273532,94.4221 94.4221587,94.4221 H 940.63313 c 52.14864,0 94.42217,-42.2735 94.42217,-94.4221 V 379.44891 c 0,-52.14742 -42.27353,-94.42217 -94.42217,-94.42217 z" />
      <path
         id="lpe_path-effect2804-6"
         style="display:inline;fill:#c61414;fill-opacity:1;stroke-width:1.20969"
         class="powerclip"
         d="M 420.83396,889.25 H 1800.739 v 819.0841 H 420.83396 Z M -3.8010953,285.02674 c -52.1474187,0 -94.4221587,42.27475 -94.4221587,94.42217 v 944.43419 c 0,52.1474 42.273532,94.4221 94.4221587,94.4221 H 940.63313 c 52.14864,0 94.42217,-42.2735 94.42217,-94.4221 V 379.44891 c 0,-52.14742 -42.27353,-94.42217 -94.42217,-94.42217 z" />
    </clipPath>
    <clipPath
       clipPathUnits="userSpaceOnUse"
       id="clipPath1879-9">
      <rect
         style="display:none;fill:#b80308;fill-opacity:0.161987;stroke:none;stroke-opacity:1;-inkscape-stroke:none;stop-color:#000000"
         id="rect1881-3"
         width="646.83606"
         height="687.56281"
         x="148.53268"
         y="505.49039" />
      <path
         id="lpe_path-effect1923-7"
         style="display:inline;fill:#b80308;fill-opacity:0.161987;stroke:none;stroke-opacity:1;-inkscape-stroke:none;stop-color:#000000"
         class="powerclip"
         d="m 1357.667,250.5 h 393.25 v 393.25 h -393.25 z M 148.53268,505.49039 V 1193.0532 H 795.36874 V 505.49039 Z" />
    </clipPath>
    <clipPath
       clipPathUnits="userSpaceOnUse"
       id="clipPath2796-4">
      <path
         id="path2798-5"
         style="display:none;fill:#c61414;fill-opacity:1;stroke-width:1.20969"
         d="m -3.8010953,285.02674 c -52.1474187,0 -94.4221587,42.27475 -94.4221587,94.42217 v 944.43419 c 0,52.1474 42.273532,94.4221 94.4221587,94.4221 H 940.63313 c 52.14864,0 94.42217,-42.2735 94.42217,-94.4221 V 379.44891 c 0,-52.14742 -42.27353,-94.42217 -94.42217,-94.42217 z" />
      <path
         id="lpe_path-effect2836-2"
         style="display:inline;fill:#c61414;fill-opacity:1;stroke-width:1.20969"
         class="powerclip"
         d="M 505.97883,-5 H 1750.9382 V 1030.151 H 505.97883 Z M -3.8010953,285.02674 c -52.1474187,0 -94.4221587,42.27475 -94.4221587,94.42217 v 944.43419 c 0,52.1474 42.273532,94.4221 94.4221587,94.4221 H 940.63313 c 52.14864,0 94.42217,-42.2735 94.42217,-94.4221 V 379.44891 c 0,-52.14742 -42.27353,-94.42217 -94.42217,-94.42217 z" />
    </clipPath>
    <clipPath
       clipPathUnits="userSpaceOnUse"
       id="clipPath2792-54">
      <path
         id="path2794-7"
         style="display:none;fill:#c61414;fill-opacity:1;stroke-width:1.20969"
         d="m -3.8010953,285.02674 c -52.1474187,0 -94.4221587,42.27475 -94.4221587,94.42217 v 944.43419 c 0,52.1474 42.273532,94.4221 94.4221587,94.4221 H 940.63313 c 52.14864,0 94.42217,-42.2735 94.42217,-94.4221 V 379.44891 c 0,-52.14742 -42.27353,-94.42217 -94.42217,-94.42217 z" />
      <path
         id="lpe_path-effect2832-44"
         style="display:inline;fill:#c61414;fill-opacity:1;stroke-width:1.20969"
         class="powerclip"
         d="M 506,250.5 H 941.833 V 643.75 H 506 Z M -3.8010953,285.02674 c -52.1474187,0 -94.4221587,42.27475 -94.4221587,94.42217 v 944.43419 c 0,52.1474 42.273532,94.4221 94.4221587,94.4221 H 940.63313 c 52.14864,0 94.42217,-42.2735 94.42217,-94.4221 V 379.44891 c 0,-52.14742 -42.27353,-94.42217 -94.42217,-94.42217 z" />
    </clipPath>
    <clipPath
       clipPathUnits="userSpaceOnUse"
       id="clipPath2788-3">
      <path
         id="path2790-07"
         style="display:none;fill:#c61414;fill-opacity:1;stroke-width:1.20969"
         d="m -3.8010953,285.02674 c -52.1474187,0 -94.4221587,42.27475 -94.4221587,94.42217 v 944.43419 c 0,52.1474 42.273532,94.4221 94.4221587,94.4221 H 940.63313 c 52.14864,0 94.42217,-42.2735 94.42217,-94.4221 V 379.44891 c 0,-52.14742 -42.27353,-94.42217 -94.42217,-94.42217 z" />
      <path
         id="lpe_path-effect2828-8"
         style="display:inline;fill:#c61414;fill-opacity:1;stroke-width:1.20969"
         class="powerclip"
         d="m 931.833,250.5 h 819.084 V 1027 H 931.833 Z M -3.8010953,285.02674 c -52.1474187,0 -94.4221587,42.27475 -94.4221587,94.42217 v 944.43419 c 0,52.1474 42.273532,94.4221 94.4221587,94.4221 H 940.63313 c 52.14864,0 94.42217,-42.2735 94.42217,-94.4221 V 379.44891 c 0,-52.14742 -42.27353,-94.42217 -94.42217,-94.42217 z" />
    </clipPath>
    <clipPath
       clipPathUnits="userSpaceOnUse"
       id="clipPath2784-68">
      <path
         id="path2786-8"
         style="display:none;fill:#c61414;fill-opacity:1;stroke-width:1.20969"
         d="m -3.8010953,285.02674 c -52.1474187,0 -94.4221587,42.27475 -94.4221587,94.42217 v 944.43419 c 0,52.1474 42.273532,94.4221 94.4221587,94.4221 H 940.63313 c 52.14864,0 94.42217,-42.2735 94.42217,-94.4221 V 379.44891 c 0,-52.14742 -42.27353,-94.42217 -94.42217,-94.42217 z" />
      <path
         id="lpe_path-effect2824-4"
         style="display:inline;fill:#c61414;fill-opacity:1;stroke-width:1.20969"
         class="powerclip"
         d="m 931.833,633.75 h 435.833 V 1027 H 931.833 Z M -3.8010953,285.02674 c -52.1474187,0 -94.4221587,42.27475 -94.4221587,94.42217 v 944.43419 c 0,52.1474 42.273532,94.4221 94.4221587,94.4221 H 940.63313 c 52.14864,0 94.42217,-42.2735 94.42217,-94.4221 V 379.44891 c 0,-52.14742 -42.27353,-94.42217 -94.42217,-94.42217 z" />
    </clipPath>
    <clipPath
       clipPathUnits="userSpaceOnUse"
       id="clipPath1277-3" />
    <clipPath
       clipPathUnits="userSpaceOnUse"
       id="clipPath2776-1">
      <path
         id="path2778-4"
         style="display:none;fill:#c61414;fill-opacity:1;stroke-width:1.20969"
         d="m -3.8010953,285.02674 c -52.1474187,0 -94.4221587,42.27475 -94.4221587,94.42217 v 944.43419 c 0,52.1474 42.273532,94.4221 94.4221587,94.4221 H 940.63313 c 52.14864,0 94.42217,-42.2735 94.42217,-94.4221 V 379.44891 c 0,-52.14742 -42.27353,-94.42217 -94.42217,-94.42217 z" />
      <path
         id="lpe_path-effect2816-9"
         style="display:inline;fill:#c61414;fill-opacity:1;stroke-width:1.20969"
         class="powerclip"
         d="m 515.453,1020.151 h 426.38 V 1377.12 H 515.453 Z M -3.8010953,285.02674 c -52.1474187,0 -94.4221587,42.27475 -94.4221587,94.42217 v 944.43419 c 0,52.1474 42.273532,94.4221 94.4221587,94.4221 H 940.63313 c 52.14864,0 94.42217,-42.2735 94.42217,-94.4221 V 379.44891 c 0,-52.14742 -42.27353,-94.42217 -94.42217,-94.42217 z" />
    </clipPath>
    <clipPath
       clipPathUnits="userSpaceOnUse"
       id="clipPath1249-2">
      <path
         fill="#1490DF"
         d="m 1811.58,927.593 -0.809,0.468 -634.492,356.848 c -2.768,1.703 -5.578,3.321 -8.517,4.769 -24.641,12.038 -53.457,12.038 -78.098,0 -2.918,-1.445 -5.76,-3.037 -8.517,-4.769 l -634.49,-356.848 -0.766,-0.468 c -12.25,-6.642 -19.93,-19.409 -20.057,-33.343 v 722.384 c 0.305,48.188 39.616,87.004 87.803,86.7 0.001,0 0.002,0 0.004,0 h 1229.636 c 48.188,0.307 87.5,-38.509 87.807,-86.696 0,-10e-4 0,0 0,0 V 894.25 c -0.016,13.817 -7.468,26.557 -19.504,33.343 z"
         id="path1251-0"
         clip-path="url(#clipath_lpe_path-effect1237)"
         style="display:none;fill:#ffffff;fill-opacity:0.526998" />
      <path
         id="lpe_path-effect1253-6"
         style="fill:#ffffff;fill-opacity:0.526998"
         class="powerclip"
         d="m 1357.667,1017 h 393.25 v 393.25 h -393.25 z m 453.913,-89.407 -0.809,0.468 -634.492,356.848 c -2.768,1.703 -5.578,3.321 -8.517,4.769 -24.641,12.038 -53.457,12.038 -78.098,0 -2.918,-1.445 -5.76,-3.037 -8.517,-4.769 l -634.49,-356.848 -0.766,-0.468 c -12.25,-6.642 -19.93,-19.409 -20.057,-33.343 v 722.384 c 0.305,48.188 39.616,87.004 87.803,86.7 0.001,0 0.002,0 0.004,0 h 1229.636 c 48.188,0.307 87.5,-38.509 87.807,-86.696 0,-10e-4 0,0 0,0 V 894.25 c -0.016,13.817 -7.468,26.557 -19.504,33.343 z" />
    </clipPath>
    <clipPath
       clipPathUnits="userSpaceOnUse"
       id="clipPath2768-8">
      <path
         id="path2770-9"
         style="display:none;fill:#c61414;fill-opacity:1;stroke-width:1.20969"
         d="m -3.8010953,285.02674 c -52.1474187,0 -94.4221587,42.27475 -94.4221587,94.42217 v 944.43419 c 0,52.1474 42.273532,94.4221 94.4221587,94.4221 H 940.63313 c 52.14864,0 94.42217,-42.2735 94.42217,-94.4221 V 379.44891 c 0,-52.14742 -42.27353,-94.42217 -94.42217,-94.42217 z" />
      <path
         id="lpe_path-effect2808-2"
         style="display:inline;fill:#c61414;fill-opacity:1;stroke-width:1.20969"
         class="powerclip"
         d="m 420.834,889.25 h 1415.25 v 819.0858 H 420.834 Z M -3.8010953,285.02674 c -52.1474187,0 -94.4221587,42.27475 -94.4221587,94.42217 v 944.43419 c 0,52.1474 42.273532,94.4221 94.4221587,94.4221 H 940.63313 c 52.14864,0 94.42217,-42.2735 94.42217,-94.4221 V 379.44891 c 0,-52.14742 -42.27353,-94.42217 -94.42217,-94.42217 z" />
    </clipPath>
    <clipPath
       clipPathUnits="userSpaceOnUse"
       id="clipPath2764-66">
      <path
         id="path2766-4"
         style="display:none;fill:#c61414;fill-opacity:1;stroke-width:1.20969"
         d="m -3.8010953,285.02674 c -52.1474187,0 -94.4221587,42.27475 -94.4221587,94.42217 v 944.43419 c 0,52.1474 42.273532,94.4221 94.4221587,94.4221 H 940.63313 c 52.14864,0 94.42217,-42.2735 94.42217,-94.4221 V 379.44891 c 0,-52.14742 -42.27353,-94.42217 -94.42217,-94.42217 z" />
      <path
         id="lpe_path-effect2804-9"
         style="display:inline;fill:#c61414;fill-opacity:1;stroke-width:1.20969"
         class="powerclip"
         d="M 420.83396,889.25 H 1800.739 v 819.0841 H 420.83396 Z M -3.8010953,285.02674 c -52.1474187,0 -94.4221587,42.27475 -94.4221587,94.42217 v 944.43419 c 0,52.1474 42.273532,94.4221 94.4221587,94.4221 H 940.63313 c 52.14864,0 94.42217,-42.2735 94.42217,-94.4221 V 379.44891 c 0,-52.14742 -42.27353,-94.42217 -94.42217,-94.42217 z" />
    </clipPath>
    <clipPath
       clipPathUnits="userSpaceOnUse"
       id="clipPath1879-5">
      <rect
         style="display:none;fill:#b80308;fill-opacity:0.161987;stroke:none;stroke-opacity:1;-inkscape-stroke:none;stop-color:#000000"
         id="rect1881-0"
         width="646.83606"
         height="687.56281"
         x="148.53268"
         y="505.49039" />
      <path
         id="lpe_path-effect1923-4"
         style="display:inline;fill:#b80308;fill-opacity:0.161987;stroke:none;stroke-opacity:1;-inkscape-stroke:none;stop-color:#000000"
         class="powerclip"
         d="m 1357.667,250.5 h 393.25 v 393.25 h -393.25 z M 148.53268,505.49039 V 1193.0532 H 795.36874 V 505.49039 Z" />
    </clipPath>
  </defs>
  <sodipodi:namedview
     id="base"
     pagecolor="#ffffff"
     bordercolor="#666666"
     borderopacity="1.0"
     inkscape:pageopacity="0.0"
     inkscape:pageshadow="2"
     inkscape:zoom="7.9999999"
     inkscape:cx="80.750001"
     inkscape:cy="62.250001"
     inkscape:document-units="px"
     inkscape:current-layer="g19587"
     inkscape:pagecheckerboard="true"
     showgrid="false"
     units="px"
     width="500px"
     borderlayer="true"
     inkscape:window-width="1920"
     inkscape:window-height="1029"
     inkscape:window-x="0"
     inkscape:window-y="0"
     inkscape:window-maximized="1"
     inkscape:lockguides="true"
     inkscape:snap-global="false"
     inkscape:snap-bbox="true"
     inkscape:bbox-paths="true"
     inkscape:bbox-nodes="false"
     inkscape:snap-bbox-edge-midpoints="false"
     inkscape:snap-bbox-midpoints="false"
     inkscape:object-paths="true"
     inkscape:snap-intersection-paths="true"
     inkscape:snap-smooth-nodes="true"
     inkscape:snap-midpoints="true" />
  <metadata
     id="metadata2632">
    <rdf:RDF>
      <cc:Work
         rdf:about="">
        <dc:format>image/svg+xml</dc:format>
        <dc:type
           rdf:resource="http://purl.org/dc/dcmitype/StillImage" />
      </cc:Work>
    </rdf:RDF>
  </metadata>
  <g
     inkscape:label="Layer 1"
     inkscape:groupmode="layer"
     id="layer1">
    <rect
       style="fill:#0078d4;fill-opacity:1;stroke:none;stroke-width:21.2869;stroke-linecap:round;stroke-linejoin:round;stroke-opacity:1"
       id="rect853"
       width="100"
       height="100"
       x="0"
       y="0"
       inkscape:label="bg" />
    <g
       id="g19587"
       inkscape:label="outflat"
       transform="matrix(0.02935417,0,0,0.02935417,23.125024,24.999996)">
      <path
         id="path4"
         clip-path="url(#clipPath2796-4)"
         style="display:inline;fill:#ffffff"
         d="M 588.20312,0 C 544.55113,1.046 510,37.256203 511,80.908203 V 255.5 h 425.83203 425.83597 383.25 V 80.908203 C 1746.918,37.256203 1712.3658,1.046 1668.7148,0 Z m -67.75,643.47656 V 1025.1504 H 936.83203 V 643.47656 Z" />
      <path
         id="path6"
         clip-path="url(#clipPath2792-54)"
         style="display:inline;fill:#ffffff;fill-opacity:0.25054"
         d="M 511,255.5 V 638.75 H 936.83203 V 255.5 Z" />
      <path
         id="path8"
         clip-path="url(#clipPath2788-3)"
         style="font-variation-settings:normal;display:inline;opacity:1;vector-effect:none;fill:#ffffff;fill-opacity:0.25054;stroke-width:1;stroke-linecap:butt;stroke-linejoin:miter;stroke-miterlimit:4;stroke-dasharray:none;stroke-dashoffset:0;stroke-opacity:1;-inkscape-stroke:none;stop-color:#000000;stop-opacity:1"
         d="M 936.83203,255.5 V 638.75 H 1362.666 v 383.248 h 89.4473 L 1745.918,853.55859 V 638.75 h -383.25 V 255.5 Z" />
      <path
         fill="#0078d4"
         d="m 936.833,638.75 h 425.833 V 1022 H 936.833 Z"
         id="path10"
         clip-path="url(#clipPath2784-68)"
         style="display:inline;fill:#ffffff;fill-opacity:0.647948" />
      <path
         fill="#0364b8"
         d="m 936.833,1022 h 425.833 v 383.25 H 936.833 Z"
         id="path12"
         clip-path="url(#clipPath1277-3)"
         style="display:inline" />
      <path
         fill="#14447d"
         d="m 520.453,1025.151 h 416.38 v 346.969 h -416.38 z"
         id="path14"
         clip-path="url(#clipPath2776-1)"
         style="display:inline" />
      <path
         id="path16"
         clip-path="url(#clipPath1249-2)"
         style="display:inline;fill:#ffffff;fill-opacity:0.25"
         d="m 1362.668,1022 v 51.2773 L 1452.1094,1022 Z m 0,319.0977 v 64.1523 h 107.4375 z" />
      <path
         id="rect2981"
         style="font-variation-settings:normal;opacity:1;vector-effect:none;fill:#ffffff;fill-opacity:0.25054;stroke-width:1.00987;stroke-linecap:butt;stroke-linejoin:miter;stroke-miterlimit:4;stroke-dasharray:none;stroke-dashoffset:0;stroke-opacity:1;-inkscape-stroke:none;stop-color:#000000;stop-opacity:1"
         d="m 1035.0566,1022 v 120.377 l 103.7735,59.2285 223.8359,-128.3262 V 1022 Z" />
      <path
         id="path27"
         clip-path="url(#clipPath2768-8)"
         style="display:inline;fill:#ffffff;fill-opacity:1;stroke:none;stroke-opacity:1"
         inkscape:label="Env Mid"
         d="m 1831.084,894.25 c -0.016,13.817 -7.4679,26.55775 -19.5039,33.34375 l -0.8086,0.4668 -580.5254,326.49605 600.8379,351.9493 z M 425.83398,1603.2285 v 13.4063 c 0.305,48.188 39.61574,87.0032 87.80274,86.6992 h 0.004 1229.63668 c 0.015,10e-5 0.03,0 0.045,0 H 525.74805 c -55.23483,-0.053 -99.96797,-44.8698 -99.91407,-100.1035 z" />
      <path
         fill="#28A8EA"
         d="m 514.833,1703.333 h 1228.316 c 18.901,0.096 37.335,-5.874 52.59,-17.033 L 1098.65,1277.969 c -2.929,-1.47 -5.773,-3.105 -8.517,-4.897 L 447.125,906.088 h -0.298 L 425.834,894.25 v 719.914 c -0.048,49.2 39.798,89.122 88.999,89.169 -10e-4,0 -10e-4,0 0,0 z"
         id="path33"
         clip-path="url(#clipPath2764-66)"
         style="display:inline;fill:#ffffff"
         inkscape:label="Env Front"
         sodipodi:insensitive="true" />
      <path
         id="path50"
         style="display:inline;fill:#ffffff;fill-opacity:1"
         d="M 78.054688,383.25 C 34.946687,383.25 0,418.19669 0,461.30469 v 780.72261 c 0,43.108 34.945687,78.0547 78.054688,78.0547 H 858.77734 c 43.109,0 78.05469,-34.9457 78.05469,-78.0547 V 461.30469 c 0,-43.108 -34.94569,-78.05469 -78.05469,-78.05469 z M 474.80469,576.62109 c 45.965,-0.997 91.32223,10.6556 131.11523,33.6836 37.414,22.312 67.54524,55.00242 86.74024,94.10742 20.904,43.09 31.32325,90.51248 30.40625,138.39648 1.013,50.043 -9.70583,99.62821 -31.29883,144.78321 -19.652,40.503 -50.74178,74.3607 -89.42578,97.3887 -41.327,23.734 -88.36772,35.6921 -136.01172,34.5781 -46.947,1.133 -93.30277,-10.6524 -134.00977,-34.0684 -37.738,-22.341 -68.24762,-55.0693 -87.89062,-94.27926 -21.028,-42.467 -31.5711,-89.35438 -30.7461,-136.73438 -0.876,-49.617 9.47535,-98.7907 30.27735,-143.8457 19.238,-40.988 50.28992,-75.28814 89.16992,-98.49414 43.057,-24.651 92.07983,-36.94063 141.67383,-35.51563 z m -4.13086,89.42579 c -28.572,-0.74001 -56.64555,7.59173 -80.18555,23.80273 -22.893,16.496 -40.61661,39.16823 -51.09961,65.36523 -23.255,60.049 -23.37484,126.59552 -0.33984,186.72852 l -0.043,-0.0859 c 10.257,25.912 27.65206,48.3855 50.16406,64.81244 22.93,16.026 50.38556,24.2948 78.35156,23.5918 29.783,1.178 59.14077,-7.3734 83.63477,-24.3594 22.227,-16.37492 39.16384,-38.90746 48.71484,-64.81046 10.677,-28.928 15.94597,-59.5723 15.54297,-90.4043 0.33,-31.127 -4.62244,-62.08469 -14.64844,-91.55469 -8.855,-26.607 -25.24759,-50.06911 -47.18359,-67.53711 -23.88,-17.79 -53.1562,-26.81183 -82.9082,-25.54882 z"
         inkscape:label="O"
         sodipodi:insensitive="true" />
      <path
         fill="#50d9ff"
         d="m 1362.667,255.5 h 383.25 v 383.25 h -383.25 z"
         id="path54"
         clip-path="url(#clipPath1879-5)"
         style="display:inline;fill:#ffffff;fill-opacity:0.647948" />
      <path
         id="path21667"
         style="display:none;fill:#c61414;fill-opacity:1;stroke-width:1.20969"
         d="m -3.8010953,285.02674 c -52.1474187,0 -94.4221587,42.27475 -94.4221587,94.42217 v 944.43419 c 0,52.1474 42.273532,94.4221 94.4221587,94.4221 H 940.63313 c 52.14864,0 94.42217,-42.2735 94.42217,-94.4221 V 379.44891 c 0,-52.14742 -42.27353,-94.42217 -94.42217,-94.42217 z" />
      <path
         fill="#28A8EA"
         d="M 525.74751,1703.3329 H 1904.6996 c 21.2189,0.1077 41.9136,-6.5944 59.0394,-19.1219 l -782.5774,-458.4072 c -3.2882,-1.6503 -6.481,-3.4858 -9.5615,-5.4975 L 449.73605,808.31673 h -0.33454 l -23.5675,-13.28976 v 808.20153 c -0.0539,55.2337 44.67867,100.0516 99.9135,100.1044 -0.001,0 -0.001,0 0,0 z"
         id="path21832"
         clip-path="none"
         style="display:none;fill:#ff0000;fill-opacity:0.401728;stroke-width:1.12264"
         inkscape:label="Env Front"
         mask="none" />
      <path
         id="path22744"
         style="display:none;fill:#c61414;fill-opacity:1;stroke-width:1.20969"
         d="m -3.8010953,285.02674 c -52.1474187,0 -94.4221587,42.27475 -94.4221587,94.42217 v 944.43419 c 0,52.1474 42.273532,94.4221 94.4221587,94.4221 H 940.63313 c 52.14864,0 94.42217,-42.2735 94.42217,-94.4221 V 379.44891 c 0,-52.14742 -42.27353,-94.42217 -94.42217,-94.42217 z" />
      <path
         id="path22832"
         clip-path="none"
         style="display:none;fill:#8900ff;fill-opacity:0.362851;stroke:none;stroke-width:1.17163;stroke-opacity:1"
         inkscape:label="Env Mid"
         d="m 1831.084,778.25 c -0.018,16.34444 -8.6661,31.41576 -22.6333,39.44307 l -0.9383,0.55219 -673.671,386.21954 697.2426,416.3287 z M 200.3609,1616.9167 v 15.8585 c 0.35394,57.0027 45.97211,102.9181 101.89074,102.5584 h 0.005 1426.93246 c 0.017,2e-4 0.034,0 0.053,0 H 316.30623 c -64.09728,-0.063 -116.00788,-53.0774 -115.94533,-118.4146 z" />
    </g>
  </g>
</svg>
