<?xml version="1.0" encoding="UTF-8" standalone="no"?>
<!-- Created with Inkscape (http://www.inkscape.org/) -->

<svg
   width="100"
   height="100"
   viewBox="0 0 100 100"
   version="1.1"
   id="svg2635"
   inkscape:version="1.1.1 (3bf5ae0d25, 2021-09-20, custom)"
   sodipodi:docname="protonmail.svg"
   inkscape:export-filename="/mnt/data/Desktop/KDE/mozicons/yt.png"
   inkscape:export-xdpi="96"
   inkscape:export-ydpi="96"
   xmlns:inkscape="http://www.inkscape.org/namespaces/inkscape"
   xmlns:sodipodi="http://sodipodi.sourceforge.net/DTD/sodipodi-0.dtd"
   xmlns="http://www.w3.org/2000/svg"
   xmlns:svg="http://www.w3.org/2000/svg"
   xmlns:rdf="http://www.w3.org/1999/02/22-rdf-syntax-ns#"
   xmlns:cc="http://creativecommons.org/ns#"
   xmlns:dc="http://purl.org/dc/elements/1.1/">
  <defs
     id="defs2629" />
  <sodipodi:namedview
     id="base"
     pagecolor="#ffffff"
     bordercolor="#666666"
     borderopacity="1.0"
     inkscape:pageopacity="0.0"
     inkscape:pageshadow="2"
     inkscape:zoom="7.9999999"
     inkscape:cx="30.875"
     inkscape:cy="47.5"
     inkscape:document-units="px"
     inkscape:current-layer="layer1"
     inkscape:pagecheckerboard="true"
     showgrid="false"
     units="px"
     width="500px"
     borderlayer="true"
     inkscape:window-width="1920"
     inkscape:window-height="1029"
     inkscape:window-x="0"
     inkscape:window-y="0"
     inkscape:window-maximized="1"
     inkscape:lockguides="true"
     inkscape:snap-global="false"
     inkscape:snap-bbox="true"
     inkscape:bbox-paths="true"
     inkscape:bbox-nodes="false"
     inkscape:snap-bbox-edge-midpoints="false"
     inkscape:snap-bbox-midpoints="false"
     inkscape:object-paths="true"
     inkscape:snap-intersection-paths="true"
     inkscape:snap-smooth-nodes="true"
     inkscape:snap-midpoints="true" />
  <metadata
     id="metadata2632">
    <rdf:RDF>
      <cc:Work
         rdf:about="">
        <dc:format>image/svg+xml</dc:format>
        <dc:type
           rdf:resource="http://purl.org/dc/dcmitype/StillImage" />
      </cc:Work>
    </rdf:RDF>
  </metadata>
  <g
     inkscape:label="Layer 1"
     inkscape:groupmode="layer"
     id="layer1">
    <rect
       style="fill:#667fe4;fill-opacity:1;stroke-width:21.2869;stroke-linecap:round;stroke-linejoin:round;stroke:none;stroke-opacity:1"
       id="rect853"
       width="100"
       height="100"
       x="0"
       y="0"
       inkscape:label="bg" />
    <g
       id="g1733"
       transform="matrix(0.07884692,0,0,-0.07884692,32.205709,75.000001)">
      <path
         d="M 353.797,355.668 H 97.5664 v 77.059 c 25.9996,103.062 128.1176,104.48 128.1176,104.48 0,0 102.113,-1.418 128.113,-104.48 z M 225.684,634.121 c 0,0 -187.0981,6.145 -225.684,-201.394 V 291.375 c 0,0 1.59766,-15.129 44.1445,-45.859 42.5469,-30.727 152.6995,-117.243 181.5395,-117.243 28.836,0 138.988,86.516 181.535,117.243 42.547,30.73 44.144,45.859 44.144,45.859 V 432.727 C 412.773,640.266 225.684,634.121 225.684,634.121"
         style="fill:#ffffff;fill-opacity:1;fill-rule:nonzero;stroke:none"
         id="path1735" />
      <path
         d="m 225.684,96.4414 c 0,0 -28.996,2.8359 -51.692,18.5936 C 151.301,130.793 0,238.898 0,238.898 V 24.8984 C 0,24.8984 1.28125,0 28.7031,0 56.1211,0 225.684,0 225.684,0 c 0,0 169.558,0 196.976,0 27.422,0 28.703,24.8984 28.703,24.8984 V 238.898 c 0,0 -151.3,-108.105 -173.996,-123.863 C 254.676,99.2773 225.684,96.4414 225.684,96.4414"
         style="fill:#ffffff;fill-opacity:1;fill-rule:nonzero;stroke:none"
         id="path1737" />
    </g>
  </g>
</svg>
