<?xml version="1.0" encoding="UTF-8" standalone="no"?>
<!-- Created with Inkscape (http://www.inkscape.org/) -->

<svg
   width="100"
   height="100"
   viewBox="0 0 100 100"
   version="1.1"
   id="svg2635"
   inkscape:version="1.1.1 (3bf5ae0d25, 2021-09-20, custom)"
   sodipodi:docname="reddit.svg"
   inkscape:export-filename="/mnt/data/Desktop/KDE/mozicons/yt.png"
   inkscape:export-xdpi="96"
   inkscape:export-ydpi="96"
   xmlns:inkscape="http://www.inkscape.org/namespaces/inkscape"
   xmlns:sodipodi="http://sodipodi.sourceforge.net/DTD/sodipodi-0.dtd"
   xmlns="http://www.w3.org/2000/svg"
   xmlns:svg="http://www.w3.org/2000/svg"
   xmlns:rdf="http://www.w3.org/1999/02/22-rdf-syntax-ns#"
   xmlns:cc="http://creativecommons.org/ns#"
   xmlns:dc="http://purl.org/dc/elements/1.1/">
  <defs
     id="defs2629" />
  <sodipodi:namedview
     id="base"
     pagecolor="#ffffff"
     bordercolor="#666666"
     borderopacity="1.0"
     inkscape:pageopacity="0.0"
     inkscape:pageshadow="2"
     inkscape:zoom="3.959798"
     inkscape:cx="65.912454"
     inkscape:cy="23.738585"
     inkscape:document-units="px"
     inkscape:current-layer="layer1"
     inkscape:pagecheckerboard="true"
     showgrid="false"
     units="px"
     width="500px"
     borderlayer="true"
     inkscape:window-width="1920"
     inkscape:window-height="1029"
     inkscape:window-x="0"
     inkscape:window-y="0"
     inkscape:window-maximized="1"
     inkscape:lockguides="true" />
  <metadata
     id="metadata2632">
    <rdf:RDF>
      <cc:Work
         rdf:about="">
        <dc:format>image/svg+xml</dc:format>
        <dc:type
           rdf:resource="http://purl.org/dc/dcmitype/StillImage" />
      </cc:Work>
    </rdf:RDF>
  </metadata>
  <g
     inkscape:label="Layer 1"
     inkscape:groupmode="layer"
     id="layer1">
    <rect
       style="fill:#ff4500;fill-opacity:1;stroke-width:21.2869;stroke-linecap:round;stroke-linejoin:round"
       id="rect853"
       width="100"
       height="100"
       x="0"
       y="0"
       inkscape:label="bg" />
    <path
       d="m 70.566864,44.14751 c -1.67373,0 -3.14662,0.69181 -4.22896,1.77416 -3.98349,-2.75608 -9.35059,-4.53024 -15.29793,-4.71993 l 3.09083,-13.92546 9.84155,2.20933 c 0,2.41017 1.96385,4.37402 4.37403,4.37402 2.45481,0 4.42981,-2.01964 4.42981,-4.42982 0,-2.41017 -1.96385,-4.42981 -4.42981,-4.42981 -1.71837,0 -3.20241,1.03771 -3.93886,2.45481 l -10.86811,-2.41018 c -0.54675,-0.14505 -1.08234,0.24548 -1.2274,0.79224 l -3.3921,15.35371 c -5.9027,0.24548 -11.21401,2.01964 -15.20866,4.77572 -1.08235,-1.12698 -2.61102,-1.81879 -4.28476,-1.81879 -6.20397,0 -8.23477,8.32404 -2.55523,11.16938 -0.20085,0.8815 -0.29011,1.81879 -0.29011,2.75608 0,9.3506 10.53336,16.92703 23.46574,16.92703 12.98817,0 23.52154,-7.57643 23.52154,-16.92703 0,-0.93729 -0.10043,-1.91921 -0.34591,-2.80071 5.56795,-2.8565 3.51484,-11.12475 -2.65566,-11.12475 z m -34.69091,11.76077 c 0,-2.45481 1.96384,-4.42982 4.42981,-4.42982 2.41018,0 4.37402,1.96385 4.37402,4.42982 0,2.41018 -1.96384,4.37402 -4.37402,4.37402 -2.45481,0.0112 -4.42981,-1.96384 -4.42981,-4.37402 z m 23.91207,10.43294 c -4.06159,4.06159 -15.52109,4.06159 -19.58268,0 -0.44633,-0.39054 -0.44633,-1.08235 0,-1.52868 0.39053,-0.39054 1.08234,-0.39054 1.47288,0 3.10199,3.1801 13.38987,3.23589 16.62576,0 0.39053,-0.39054 1.08234,-0.39054 1.47288,0 0.45749,0.44633 0.45749,1.13814 0.0112,1.52868 z m -0.0893,-6.04776 c -2.41017,0 -4.37402,-1.96385 -4.37402,-4.37402 0,-2.45481 1.96385,-4.42982 4.37402,-4.42982 2.45481,0 4.42982,1.96385 4.42982,4.42982 -0.0112,2.39902 -1.97501,4.37402 -4.42982,4.37402 z"
       id="path2619"
       style="stroke-width:0.111582;fill:#fffffe;fill-opacity:1" />
  </g>
</svg>
