<?xml version="1.0" encoding="UTF-8" standalone="no"?>
<!-- Created with Inkscape (http://www.inkscape.org/) -->

<svg
   width="100"
   height="100"
   viewBox="0 0 100 100"
   version="1.1"
   id="svg2635"
   inkscape:version="1.1.1 (3bf5ae0d25, 2021-09-20, custom)"
   sodipodi:docname="steam.svg"
   inkscape:export-filename="/mnt/data/Desktop/KDE/mozicons/yt.png"
   inkscape:export-xdpi="96"
   inkscape:export-ydpi="96"
   xmlns:inkscape="http://www.inkscape.org/namespaces/inkscape"
   xmlns:sodipodi="http://sodipodi.sourceforge.net/DTD/sodipodi-0.dtd"
   xmlns="http://www.w3.org/2000/svg"
   xmlns:svg="http://www.w3.org/2000/svg"
   xmlns:rdf="http://www.w3.org/1999/02/22-rdf-syntax-ns#"
   xmlns:cc="http://creativecommons.org/ns#"
   xmlns:dc="http://purl.org/dc/elements/1.1/">
  <defs
     id="defs2629" />
  <sodipodi:namedview
     id="base"
     pagecolor="#ffffff"
     bordercolor="#666666"
     borderopacity="1.0"
     inkscape:pageopacity="0.0"
     inkscape:pageshadow="2"
     inkscape:zoom="5.6568542"
     inkscape:cx="30.052038"
     inkscape:cy="44.370951"
     inkscape:document-units="px"
     inkscape:current-layer="layer1"
     inkscape:pagecheckerboard="true"
     showgrid="false"
     units="px"
     width="500px"
     borderlayer="true"
     inkscape:window-width="1920"
     inkscape:window-height="1029"
     inkscape:window-x="0"
     inkscape:window-y="0"
     inkscape:window-maximized="1"
     inkscape:lockguides="true"
     inkscape:snap-global="false"
     inkscape:snap-bbox="true"
     inkscape:bbox-paths="true"
     inkscape:bbox-nodes="false"
     inkscape:snap-bbox-edge-midpoints="false"
     inkscape:snap-bbox-midpoints="false"
     inkscape:object-paths="true"
     inkscape:snap-intersection-paths="true"
     inkscape:snap-smooth-nodes="true"
     inkscape:snap-midpoints="true" />
  <metadata
     id="metadata2632">
    <rdf:RDF>
      <cc:Work
         rdf:about="">
        <dc:format>image/svg+xml</dc:format>
        <dc:type
           rdf:resource="http://purl.org/dc/dcmitype/StillImage" />
      </cc:Work>
    </rdf:RDF>
  </metadata>
  <g
     inkscape:label="Layer 1"
     inkscape:groupmode="layer"
     id="layer1">
    <rect
       style="fill:#085693;fill-opacity:1;stroke-width:21.2869;stroke-linecap:round;stroke-linejoin:round"
       id="rect853"
       width="100"
       height="100"
       x="0"
       y="0"
       inkscape:label="bg" />
    <path
       id="rect866"
       style="display:inline;fill:#ffffff;fill-opacity:1;stroke-width:0.634146;stroke-linecap:round;stroke-linejoin:round"
       d="m 66.91848,29.388234 c -6.556644,0 -11.88303,5.326486 -11.88303,11.85777 v 0.152333 l -7.507959,10.868467 c -1.965728,-0.114139 -3.893406,0.431142 -5.516715,1.534485 L 25.182464,46.847433 c -3.050156,2.312606 -4.041241,4.923192 -5.074328,8.490818 l 14.070449,5.869437 4.116483,1.699452 c 0.811651,4.070956 4.425858,7.152757 8.737773,7.152757 4.971385,0 9.11858,-4.109003 8.902989,-9.321348 l 10.716379,-7.634776 c 6.607374,0.164867 12.149307,-5.186981 12.149307,-11.857769 0,-6.543967 -5.326384,-11.85777 -11.883036,-11.85777 z m 0,3.956966 c 4.362645,0 7.913682,3.550841 7.913682,7.900804 0,4.349962 -3.538356,7.901051 -7.913682,7.901051 -4.362645,0 -7.913682,-3.551089 -7.913682,-7.901051 0,-4.349963 3.551037,-7.900804 7.913682,-7.900804 z m 0.01261,1.952847 c -3.284666,0 -5.947953,2.663341 -5.947953,5.935324 0.0127,3.271984 2.675976,5.935325 5.947953,5.935325 3.284667,0 5.947963,-2.663341 5.947963,-5.935325 0,-3.284665 -2.663296,-5.935324 -5.947963,-5.935324 z M 47.107382,54.441834 c 0.835436,0.0063 1.682011,0.17106 2.500009,0.513477 1.648669,0.684833 2.929567,1.978606 3.614397,3.62728 0.684838,1.648674 0.672199,3.462067 -0.01261,5.11074 -1.42039,3.398805 -5.339165,5.022164 -8.750652,3.601768 -1.51151,-0.631879 -2.738868,-1.796048 -3.449684,-3.272082 l 3.868046,1.598143 c 2.511057,1.039933 5.389993,-0.139503 6.442611,-2.663242 1.05261,-2.511058 -0.139558,-5.390044 -2.650615,-6.429976 l -3.994857,-1.648674 c 0.773609,-0.291689 1.597939,-0.443775 2.433375,-0.437434 z m 32.784482,16.00992 c -0.04952,0.05461 -0.102685,0.105752 -0.152582,0.160012 h 0.152582 z"
       sodipodi:nodetypes="sscccccccsccsssssssscsssccsccccccccccccc" />
  </g>
</svg>
