<?xml version="1.0" encoding="UTF-8" standalone="no"?>
<!-- Created with Inkscape (http://www.inkscape.org/) -->

<svg
   width="100"
   height="100"
   viewBox="0 0 100 100"
   version="1.1"
   id="svg2635"
   inkscape:version="1.1.1 (3bf5ae0d25, 2021-09-20, custom)"
   sodipodi:docname="wa.svg"
   inkscape:export-filename="/mnt/data/Desktop/KDE/mozicons/yt.png"
   inkscape:export-xdpi="96"
   inkscape:export-ydpi="96"
   xmlns:inkscape="http://www.inkscape.org/namespaces/inkscape"
   xmlns:sodipodi="http://sodipodi.sourceforge.net/DTD/sodipodi-0.dtd"
   xmlns="http://www.w3.org/2000/svg"
   xmlns:svg="http://www.w3.org/2000/svg"
   xmlns:rdf="http://www.w3.org/1999/02/22-rdf-syntax-ns#"
   xmlns:cc="http://creativecommons.org/ns#"
   xmlns:dc="http://purl.org/dc/elements/1.1/">
  <defs
     id="defs2629" />
  <sodipodi:namedview
     id="base"
     pagecolor="#ffffff"
     bordercolor="#666666"
     borderopacity="1.0"
     inkscape:pageopacity="0.0"
     inkscape:pageshadow="2"
     inkscape:zoom="3.959798"
     inkscape:cx="9.0913728"
     inkscape:cy="76.771593"
     inkscape:document-units="px"
     inkscape:current-layer="layer1"
     inkscape:pagecheckerboard="true"
     showgrid="false"
     units="px"
     width="500px"
     borderlayer="true"
     inkscape:window-width="1920"
     inkscape:window-height="1029"
     inkscape:window-x="0"
     inkscape:window-y="0"
     inkscape:window-maximized="1"
     inkscape:lockguides="true" />
  <metadata
     id="metadata2632">
    <rdf:RDF>
      <cc:Work
         rdf:about="">
        <dc:format>image/svg+xml</dc:format>
        <dc:type
           rdf:resource="http://purl.org/dc/dcmitype/StillImage" />
      </cc:Work>
    </rdf:RDF>
  </metadata>
  <g
     inkscape:label="Layer 1"
     inkscape:groupmode="layer"
     id="layer1">
    <rect
       style="fill:#00bfa5;fill-opacity:1;stroke-width:21.2869;stroke-linecap:round;stroke-linejoin:round"
       id="rect853"
       width="100"
       height="100"
       x="0"
       y="0"
       inkscape:label="bg" />
    <path
       id="path846"
       style="fill:#ffffff;fill-opacity:1;stroke-width:0.111607"
       d="m 49.988281,25 c -13.66071,0 -24.77539,11.116624 -24.77539,24.777344 0,4.363839 1.137564,8.627512 3.302734,12.388672 L 25,75 38.136719,71.550781 c 3.61607,1.97545 7.690007,3.013672 11.841797,3.013672 h 0.0098 C 63.637831,74.564453 75,63.447821 75,49.787109 75,43.168799 72.188059,36.953135 67.511719,32.265625 62.835379,27.578125 56.606581,25 49.988281,25 Z m -8.75,13.347656 c 0.41294,0 0.824501,0.0011 1.181641,0.02344 0.37947,0.02232 0.894254,-0.144803 1.396484,1.060547 0.5134,1.23884 1.751953,4.285156 1.908203,4.597656 0.15624,0.3125 0.255578,0.669081 0.05469,1.082031 -1.18304,2.36607 -2.454519,2.289063 -1.818359,3.382813 2.39956,4.11831 4.787391,5.546034 8.425781,7.365234 0.61384,0.3125 0.982694,0.25669 1.339843,-0.15625 0.3683,-0.42411 1.551904,-1.808594 1.964844,-2.433594 0.41295,-0.625 0.825331,-0.52455 1.394532,-0.3125 0.569199,0.20089 3.616628,1.697266 4.230468,2.009766 0.61384,0.30134 1.026785,0.457308 1.171875,0.736328 0.15625,0.25669 0.155978,1.496376 -0.357422,2.947266 -0.51339,1.4509 -2.979638,2.766742 -4.173828,2.945312 -1.96429,0.29018 -3.505023,0.145649 -7.433593,-1.550781 -6.216521,-2.68973 -10.267579,-8.940566 -10.580079,-9.353516 -0.30133,-0.41294 -2.523437,-3.35937 -2.523437,-6.40625 0,-3.04687 1.596826,-4.541015 2.166016,-5.166015 0.569199,-0.61384 1.239393,-0.771485 1.652343,-0.771485 z" />
  </g>
</svg>
